<svg viewBox="0 0 256 256" xmlns="http://www.w3.org/2000/svg" style="fill:#f9f9f9"><path d="M 42,104 C 10.5,104 10.5,152 42,152 C 52,152 61,145.5 64.5,136 H 93 C 107,136 114.5,143.5 114.5,157.5 V 184 C 114.5,197 127.5,210 140.5,210 H 174 V 234 L 216,202 174,170 V 194 H 152 C 138,194 130.5,186.5 130.5,172.5 V 150 C 124.5,136 124.5,120 130.5,106 V 83.5 C 130.5,69.5 138,62 152,62 H 174 V 86 L 216,54 174,22 V 46 H 140.5 C 127.5,46 114.5,59 114.5,72 V 98.5 C 114.5,112.5 107,120 93,120 H 64.5 C 61,110.5 52,104 42,104 Z"/></svg>
