<svg viewBox="0 0 240 240" style="fill:#f9f9f9"><path d="M 116.5,67.5 111.5,106 H 78 c -15.5,0 -15.5,24 0,24 h 30 l -7.5,55.5 c -2.5,18 -35.5,17.5 -45.5,1.5 -7.9,-12.9 -27.5,-1 -19.5,12 22,35.9 82.5,28.5 87.9,-10.5 L 131.5,130 H 162 c 15.5,0 15.5,-24 0,-24 h -27.5 l 4.5,-35.5 c 2.5,-18 35.5,-17.5 45.5,-1.5 7.9,13 27.5,1 19.5,-12 -22,-35.9 -82.5,-28.5 -87.9,10.5 z m 41.9,106 14.5,14.5 -14.5,14.5 c -10,10 5.5,25.5 15.5,15.5 l 14.5,-14.5 14.5,14.5 c 10,10 25.5,-5.5 15.5,-15.5 L 203.5,188 217.5,173.5 c 10,-10 -5.5,-25.5 -15.5,-15.5 L 188,172.5 173.5,158.5 c -10,-10 -25.5,5.5 -15.5,15.5 z"/></svg>
