<svg viewBox="0 0 240 240" style="fill:#f9f9f9"><path d="M 64.5,38 C 24,88.5 24,151.5 64.5,202 74,213.5 91,199 82,187.5 47,144.5 47,95.5 82,52.5 91.5,41 73,26.5 64.5,38 Z M 158,52.5 c 35,43.5 35,92 0,135.5 -9.5,11.5 8,25.5 17.5,14 40.5,-50 40.5,-113.5 0,-163.5 C 166.5,27 149,41 158,52.5 Z M 80,89 105.5,120 80,151 c -9.5,11.5 8,25.5 17.5,14.5 l 23,-27.5 23,27.5 c 9.5,11.5 26.5,-3 17.5,-14.5 L 134.5,120 160,89 c 9.5,-11.5 -8,-25.5 -17.5,-14.5 L 120,102.5 97,75 c -9.5,-11.5 -27,3 -17.5,14.5 z"/></svg>
